<?xml version="1.0" encoding="UTF-8" standalone="no"?>
<svg
   xmlns:dc="http://purl.org/dc/elements/1.1/"
   xmlns:cc="http://creativecommons.org/ns#"
   xmlns:rdf="http://www.w3.org/1999/02/22-rdf-syntax-ns#"
   xmlns:svg="http://www.w3.org/2000/svg"
   xmlns="http://www.w3.org/2000/svg"
   xmlns:sodipodi="http://sodipodi.sourceforge.net/DTD/sodipodi-0.dtd"
   xmlns:inkscape="http://www.inkscape.org/namespaces/inkscape"
   width="37.601669mm"
   height="5.3227072mm"
   viewBox="0 0 37.601668 5.3227071"
   version="1.1"
   id="svg8"
   inkscape:version="1.0.2 (e86c8708, 2021-01-15)"
   sodipodi:docname="email.svg">
  <defs
     id="defs2" />
  <sodipodi:namedview
     id="base"
     pagecolor="#ffffff"
     bordercolor="#666666"
     borderopacity="1.0"
     inkscape:pageopacity="0.0"
     inkscape:pageshadow="2"
     inkscape:zoom="5.6"
     inkscape:cx="44.411789"
     inkscape:cy="55.432369"
     inkscape:document-units="mm"
     inkscape:current-layer="layer1"
     inkscape:document-rotation="0"
     showgrid="false"
     inkscape:window-width="1252"
     inkscape:window-height="955"
     inkscape:window-x="0"
     inkscape:window-y="23"
     inkscape:window-maximized="0" />
  <metadata
     id="metadata5">
    <rdf:RDF>
      <cc:Work
         rdf:about="">
        <dc:format>image/svg+xml</dc:format>
        <dc:type
           rdf:resource="http://purl.org/dc/dcmitype/StillImage" />
        <dc:title />
      </cc:Work>
    </rdf:RDF>
  </metadata>
  <g
     inkscape:label="Layer 1"
     inkscape:groupmode="layer"
     id="layer1"
     transform="translate(-70.138253,-95.897991)">
    <g
       aria-label="me@pcstj.com"
       id="text845"
       style="font-size:5.64444px;line-height:1.25;font-family:Arial;-inkscape-font-specification:Arial;stroke-width:0.264583">
      <path
         d="m 74.512694,100.01843 h -0.383822 v -1.642529 q 0,-0.513645 -0.163689,-0.756355 -0.163688,-0.242711 -0.485421,-0.242711 -0.169334,0 -0.321733,0.06209 -0.146756,0.06209 -0.276578,0.174978 -0.124178,0.112889 -0.220133,0.270933 -0.09596,0.1524 -0.146756,0.338667 v 1.794929 H 72.13074 v -1.642529 q 0,-0.524933 -0.158044,-0.762 -0.158044,-0.237066 -0.485422,-0.237066 -0.333022,0 -0.592666,0.231422 -0.259644,0.231422 -0.372533,0.609599 v 1.800574 h -0.383822 v -2.940751 h 0.349955 v 0.666044 q 0.180622,-0.338666 0.474133,-0.524933 0.293511,-0.191911 0.649111,-0.191911 0.372533,0 0.592666,0.208845 0.225778,0.208844 0.276578,0.54751 0.412044,-0.756355 1.134532,-0.756355 0.248356,0 0.417689,0.09031 0.174977,0.09031 0.276577,0.259645 0.107245,0.163688 0.1524,0.400755 0.0508,0.231422 0.0508,0.519288 z"
         style="font-style:normal;font-variant:normal;font-weight:normal;font-stretch:normal;font-size:5.64444px;font-family:Raleway;-inkscape-font-specification:Raleway;stroke-width:0.264583"
         id="path847" />
      <path
         d="m 76.600696,100.07488 q -0.321733,0 -0.592666,-0.118536 -0.265289,-0.124178 -0.462844,-0.333022 -0.197556,-0.214489 -0.310445,-0.491066 -0.107244,-0.276578 -0.107244,-0.592667 0,-0.310444 0.107244,-0.581377 0.112889,-0.276578 0.3048,-0.479777 0.197556,-0.208845 0.468489,-0.327378 0.270933,-0.124178 0.587022,-0.124178 0.321733,0 0.587021,0.124178 0.270933,0.118533 0.462844,0.327378 0.191911,0.208844 0.299156,0.479777 0.107244,0.270933 0.107244,0.575733 0,0.04515 0,0.09031 0,0.04515 -0.0056,0.06209 h -2.517421 q 0.01693,0.237066 0.107245,0.440266 0.09596,0.197555 0.242711,0.344311 0.146755,0.146755 0.333022,0.231422 0.191911,0.07902 0.406399,0.07902 0.141111,0 0.282222,-0.03951 0.141111,-0.03951 0.259645,-0.107244 0.118533,-0.06773 0.214488,-0.163689 0.09596,-0.1016 0.146756,-0.220133 l 0.333022,0.09031 q -0.06773,0.163689 -0.191911,0.299155 -0.124178,0.129822 -0.287867,0.231422 -0.163689,0.09596 -0.361244,0.146753 -0.197555,0.0564 -0.412044,0.0564 z m 1.083732,-1.682046 q -0.01693,-0.237067 -0.112888,-0.428978 -0.09031,-0.197555 -0.237067,-0.338666 -0.141111,-0.141111 -0.333022,-0.220133 -0.186266,-0.07902 -0.400755,-0.07902 -0.214489,0 -0.4064,0.07902 -0.191911,0.07902 -0.338666,0.220133 -0.141111,0.141111 -0.231422,0.338666 -0.08467,0.197556 -0.1016,0.428978 z"
         style="font-style:normal;font-variant:normal;font-weight:normal;font-stretch:normal;font-size:5.64444px;font-family:Raleway;-inkscape-font-specification:Raleway;stroke-width:0.264583"
         id="path849" />
      <path
         d="m 80.579409,96.614835 q 0.417689,0 0.790222,0.158045 0.372533,0.152399 0.654755,0.440266 0.282222,0.282222 0.445911,0.677333 0.163688,0.39511 0.163688,0.874888 0,0.07902 -0.01129,0.214489 -0.0056,0.129822 -0.03387,0.276577 -0.02822,0.146756 -0.08467,0.299156 -0.0508,0.152399 -0.141111,0.276577 -0.09031,0.124178 -0.225777,0.197554 -0.135467,0.079 -0.327378,0.079 -0.141111,0 -0.231422,-0.0451 -0.08467,-0.0395 -0.135467,-0.112891 -0.0508,-0.07338 -0.07338,-0.163688 -0.02258,-0.09596 -0.03387,-0.197556 -0.158044,0.163689 -0.4064,0.282222 -0.248355,0.118533 -0.54751,0.118533 -0.400756,0 -0.626533,-0.208844 -0.220133,-0.214489 -0.220133,-0.547511 0,-0.214488 0.09031,-0.361244 0.09595,-0.146755 0.242711,-0.231422 0.152399,-0.09031 0.338666,-0.124177 0.186267,-0.03951 0.372533,-0.03951 0.248355,0 0.434622,0.0508 0.186266,0.04516 0.282222,0.07902 0,-0.2032 -0.03387,-0.366889 -0.02822,-0.169333 -0.107244,-0.287866 -0.07902,-0.118534 -0.214489,-0.186267 -0.135466,-0.06773 -0.344311,-0.06773 -0.220133,0 -0.423333,0.07338 -0.203199,0.06773 -0.366888,0.191911 l -0.1016,-0.220133 q 0.2032,-0.135466 0.428977,-0.214488 0.231422,-0.07902 0.496711,-0.07902 0.310444,0 0.491066,0.107245 0.186267,0.1016 0.282222,0.270933 0.09596,0.163689 0.118534,0.372533 0.02822,0.2032 0.02822,0.4064 v 0.728132 q 0,0.124178 0.0056,0.231422 0.01129,0.1016 0.03951,0.174978 0.03387,0.07338 0.09031,0.118533 0.06209,0.03951 0.158045,0.03951 0.174977,0 0.287866,-0.118533 0.112889,-0.124178 0.180622,-0.299155 0.06773,-0.174978 0.09031,-0.372533 0.02822,-0.2032 0.02822,-0.3556 0,-0.4064 -0.141111,-0.761999 -0.141111,-0.3556 -0.39511,-0.615244 -0.248356,-0.265289 -0.587022,-0.417689 -0.338667,-0.1524 -0.733777,-0.1524 -0.383822,0 -0.728133,0.146756 -0.338667,0.141111 -0.598311,0.39511 -0.254,0.254 -0.4064,0.603956 -0.146755,0.349955 -0.146755,0.767643 0,0.400756 0.141111,0.756355 0.141111,0.349956 0.383822,0.609604 0.248355,0.26528 0.587022,0.41204 0.338666,0.1524 0.739421,0.1524 0.242711,0 0.445911,-0.0564 0.208844,-0.0565 0.417689,-0.15805 l 0.07338,0.18062 q -0.231422,0.11289 -0.468488,0.16934 -0.237067,0.0564 -0.474133,0.0564 -0.423333,0 -0.795866,-0.15804 -0.372533,-0.15805 -0.654755,-0.44591 -0.276578,-0.282226 -0.440266,-0.671693 -0.158045,-0.389466 -0.158045,-0.846666 0,-0.479777 0.169333,-0.863599 0.174978,-0.389466 0.462844,-0.666044 0.293511,-0.276577 0.671689,-0.423333 0.378177,-0.1524 0.784577,-0.1524 z m 0.344311,3.008487 q 0.237066,-0.112889 0.299155,-0.265289 0.06773,-0.1524 0.06773,-0.310444 v -0.225778 q -0.07338,-0.01129 -0.265289,-0.06773 -0.186267,-0.05644 -0.4572,-0.05644 -0.146755,0 -0.287866,0.02822 -0.141111,0.02258 -0.248356,0.08467 -0.107244,0.06209 -0.174977,0.163689 -0.06209,0.09596 -0.06209,0.248356 0,0.237066 0.169333,0.383821 0.169333,0.141111 0.434622,0.141111 0.141111,0 0.276578,-0.03387 0.141111,-0.03951 0.248355,-0.09031 z"
         style="font-style:normal;font-variant:normal;font-weight:normal;font-stretch:normal;font-size:5.64444px;font-family:Raleway;-inkscape-font-specification:Raleway;stroke-width:0.264583"
         id="path851" />
      <path
         d="m 84.879855,100.07488 q -0.372533,0 -0.660399,-0.18627 -0.282222,-0.19191 -0.4572,-0.479777 v 1.811867 h -0.383822 v -4.143021 h 0.344311 v 0.570089 q 0.180622,-0.276578 0.468488,-0.445911 0.287867,-0.174978 0.626533,-0.174978 0.3048,0 0.5588,0.129822 0.254,0.124178 0.440266,0.338667 0.186267,0.208844 0.287867,0.485422 0.107244,0.276577 0.107244,0.570088 0,0.310444 -0.09596,0.587022 -0.09596,0.276578 -0.276578,0.485422 -0.174978,0.208844 -0.423333,0.333022 -0.242711,0.118536 -0.536222,0.118536 z m -0.107244,-0.338669 q 0.237066,0 0.428977,-0.1016 0.197556,-0.1016 0.333022,-0.265289 0.141111,-0.169333 0.214489,-0.378177 0.07338,-0.214489 0.07338,-0.440267 0,-0.237066 -0.08467,-0.451555 -0.08467,-0.214489 -0.231422,-0.378178 -0.146755,-0.163688 -0.349955,-0.259644 -0.197556,-0.09596 -0.428978,-0.09596 -0.146755,0 -0.310444,0.06209 -0.158044,0.05644 -0.299155,0.158044 -0.135467,0.09596 -0.237067,0.231422 -0.09595,0.129822 -0.118533,0.276578 v 0.90311 q 0.06773,0.158044 0.169333,0.293511 0.107245,0.135466 0.237067,0.237066 0.135466,0.09596 0.287866,0.1524 0.1524,0.05644 0.316089,0.05644 z"
         style="font-style:normal;font-variant:normal;font-weight:normal;font-stretch:normal;font-size:5.64444px;font-family:Raleway;-inkscape-font-specification:Raleway;stroke-width:0.264583"
         id="path853" />
      <path
         d="m 86.658911,98.539589 q 0,-0.310444 0.107244,-0.587021 0.107245,-0.276578 0.299156,-0.479778 0.197555,-0.208844 0.468488,-0.327377 0.270933,-0.118534 0.598311,-0.118534 0.417689,0 0.728133,0.191911 0.310444,0.186267 0.468488,0.508 l -0.372533,0.118533 q -0.124177,-0.225777 -0.349955,-0.349955 -0.220133,-0.129822 -0.491066,-0.129822 -0.225778,0 -0.423333,0.09031 -0.191911,0.09031 -0.338667,0.248355 -0.141111,0.1524 -0.225777,0.366889 -0.07902,0.214488 -0.07902,0.468488 0,0.248356 0.08467,0.468489 0.08467,0.220133 0.231422,0.383822 0.146756,0.158044 0.338667,0.254 0.197555,0.09031 0.417688,0.09031 0.141111,0 0.276578,-0.03951 0.141111,-0.03951 0.259644,-0.107245 0.118533,-0.07338 0.2032,-0.163689 0.08467,-0.09031 0.118533,-0.191911 l 0.378177,0.112889 q -0.06209,0.158045 -0.180622,0.293511 -0.118533,0.129822 -0.282222,0.231422 -0.158044,0.09596 -0.355599,0.146753 -0.191911,0.0564 -0.400756,0.0564 -0.321733,0 -0.592666,-0.118536 -0.270933,-0.124178 -0.468488,-0.333022 -0.197556,-0.214489 -0.310445,-0.491066 -0.107244,-0.276578 -0.107244,-0.592667 z"
         style="font-style:normal;font-variant:normal;font-weight:normal;font-stretch:normal;font-size:5.64444px;font-family:Raleway;-inkscape-font-specification:Raleway;stroke-width:0.264583"
         id="path855" />
      <path
         d="m 90.936427,100.07488 q -0.344311,0 -0.671688,-0.112892 -0.327378,-0.112889 -0.564444,-0.327377 l 0.174977,-0.259645 q 0.248356,0.2032 0.502355,0.3048 0.259645,0.1016 0.553156,0.1016 0.355599,0 0.564444,-0.141111 0.214488,-0.146755 0.214488,-0.412044 0,-0.124178 -0.05644,-0.2032 -0.05645,-0.08467 -0.169333,-0.146755 -0.107245,-0.06209 -0.276578,-0.107245 -0.163689,-0.0508 -0.383822,-0.1016 -0.254,-0.06209 -0.440266,-0.124177 -0.186267,-0.06209 -0.310444,-0.141111 -0.118534,-0.07902 -0.180622,-0.191911 -0.05644,-0.118533 -0.05644,-0.293511 0,-0.220133 0.08467,-0.389466 0.09031,-0.169334 0.237066,-0.276578 0.1524,-0.112889 0.349956,-0.169333 0.203199,-0.05645 0.428977,-0.05645 0.338666,0 0.615244,0.112889 0.276578,0.107244 0.445911,0.287867 l -0.186267,0.225777 q -0.163689,-0.169333 -0.400755,-0.254 -0.231422,-0.08467 -0.485422,-0.08467 -0.1524,0 -0.282222,0.03387 -0.129822,0.02822 -0.231422,0.09596 -0.09596,0.06773 -0.1524,0.174978 -0.05644,0.101599 -0.05644,0.24271 0,0.118534 0.03951,0.191911 0.03951,0.07338 0.129822,0.129823 0.09031,0.0508 0.225778,0.09596 0.141111,0.03951 0.338666,0.08467 0.282222,0.06773 0.496711,0.135466 0.214488,0.06773 0.355599,0.158045 0.146756,0.09031 0.220134,0.220133 0.07338,0.129822 0.07338,0.316088 0,0.4064 -0.310444,0.643467 -0.310444,0.237069 -0.835377,0.237069 z"
         style="font-style:normal;font-variant:normal;font-weight:normal;font-stretch:normal;font-size:5.64444px;font-family:Raleway;-inkscape-font-specification:Raleway;stroke-width:0.264583"
         id="path857" />
      <path
         d="m 94.116099,99.877322 q -0.03387,0.01693 -0.1016,0.04515 -0.06209,0.02822 -0.146755,0.05644 -0.08467,0.02822 -0.191911,0.0508 -0.107244,0.0226 -0.225778,0.0226 -0.124177,0 -0.237066,-0.0339 -0.112889,-0.03386 -0.197556,-0.101597 -0.08467,-0.07338 -0.135466,-0.180622 -0.0508,-0.107245 -0.0508,-0.248356 v -2.105376 h -0.4064 v -0.3048 h 0.4064 v -0.993421 h 0.383822 v 0.993421 h 0.677333 v 0.3048 h -0.677333 v 1.998132 q 0.01129,0.163689 0.112889,0.242711 0.107244,0.07338 0.242711,0.07338 0.163688,0 0.287866,-0.0508 0.124178,-0.05644 0.158044,-0.07902 z"
         style="font-style:normal;font-variant:normal;font-weight:normal;font-stretch:normal;font-size:5.64444px;font-family:Raleway;-inkscape-font-specification:Raleway;stroke-width:0.264583"
         id="path859" />
      <path
         d="m 94.160902,101.04008 q -0.186266,0 -0.349955,-0.0508 -0.163689,-0.0508 -0.293511,-0.16934 l 0.186266,-0.25964 q 0.09031,0.079 0.197556,0.10724 0.107244,0.0282 0.214489,0.0282 0.1016,0 0.191911,-0.0395 0.09596,-0.0395 0.169333,-0.11288 0.07338,-0.0677 0.118533,-0.16369 0.04516,-0.096 0.04516,-0.20885 v -3.093151 h 0.383821 v 3.070571 q 0,0.19756 -0.07338,0.36125 -0.07338,0.16369 -0.197556,0.28222 -0.118533,0.11853 -0.276577,0.18062 -0.1524,0.0677 -0.316089,0.0677 z m 0.479778,-4.577645 v -0.564444 h 0.383821 v 0.564444 z"
         style="font-style:normal;font-variant:normal;font-weight:normal;font-stretch:normal;font-size:5.64444px;font-family:Raleway;-inkscape-font-specification:Raleway;stroke-width:0.264583"
         id="path861" />
      <path
         d="m 95.812518,100.01843 v -0.553153 h 0.333022 v 0.553153 z"
         style="font-style:normal;font-variant:normal;font-weight:normal;font-stretch:normal;font-size:5.64444px;font-family:Raleway;-inkscape-font-specification:Raleway;stroke-width:0.264583"
         id="path863" />
      <path
         d="m 96.735119,98.539589 q 0,-0.310444 0.107245,-0.587021 0.107244,-0.276578 0.299155,-0.479778 0.197555,-0.208844 0.468488,-0.327377 0.270934,-0.118534 0.598311,-0.118534 0.417689,0 0.728133,0.191911 0.310444,0.186267 0.468488,0.508 l -0.372533,0.118533 q -0.124177,-0.225777 -0.349955,-0.349955 -0.220133,-0.129822 -0.491066,-0.129822 -0.225778,0 -0.423333,0.09031 -0.191911,0.09031 -0.338667,0.248355 -0.141111,0.1524 -0.225777,0.366889 -0.07902,0.214488 -0.07902,0.468488 0,0.248356 0.08467,0.468489 0.08467,0.220133 0.231422,0.383822 0.146756,0.158044 0.338667,0.254 0.197555,0.09031 0.417688,0.09031 0.141111,0 0.276578,-0.03951 0.141111,-0.03951 0.259644,-0.107245 0.118533,-0.07338 0.2032,-0.163689 0.08467,-0.09031 0.118533,-0.191911 l 0.378178,0.112889 q -0.06209,0.158045 -0.180622,0.293511 -0.118534,0.129822 -0.282222,0.231422 -0.158045,0.09596 -0.3556,0.146753 -0.191911,0.0564 -0.400755,0.0564 -0.321734,0 -0.592667,-0.118536 -0.270933,-0.124178 -0.468488,-0.333022 -0.197556,-0.214489 -0.310444,-0.491066 -0.107245,-0.276578 -0.107245,-0.592667 z"
         style="font-style:normal;font-variant:normal;font-weight:normal;font-stretch:normal;font-size:5.64444px;font-family:Raleway;-inkscape-font-specification:Raleway;stroke-width:0.264583"
         id="path865" />
      <path
         d="m 101.25614,100.07488 q -0.32173,0 -0.58702,-0.118536 -0.26529,-0.124178 -0.46285,-0.333022 -0.19191,-0.208844 -0.299152,-0.485422 -0.107244,-0.276578 -0.107244,-0.581377 0,-0.310445 0.107244,-0.587022 0.112892,-0.276578 0.304802,-0.485422 0.19755,-0.208844 0.46284,-0.333022 0.26529,-0.124178 0.58138,-0.124178 0.31609,0 0.58138,0.124178 0.27093,0.124178 0.46284,0.333022 0.19756,0.208844 0.3048,0.485422 0.11289,0.276577 0.11289,0.587022 0,0.304799 -0.10725,0.581377 -0.10724,0.276578 -0.30479,0.485422 -0.19192,0.208844 -0.46285,0.333022 -0.26529,0.118536 -0.58702,0.118536 z m -1.0668,-1.512713 q 0,0.248355 0.0847,0.462844 0.0847,0.208844 0.22577,0.372533 0.14676,0.158045 0.33867,0.248356 0.19756,0.09031 0.41769,0.09031 0.22013,0 0.41204,-0.09031 0.19756,-0.09596 0.34431,-0.254 0.14676,-0.163689 0.23143,-0.378178 0.0847,-0.214488 0.0847,-0.462844 0,-0.242711 -0.0847,-0.457199 -0.0847,-0.220134 -0.23143,-0.378178 -0.14675,-0.163689 -0.34431,-0.254 -0.19191,-0.09596 -0.41204,-0.09596 -0.22013,0 -0.41204,0.09596 -0.19192,0.09031 -0.33867,0.254 -0.14676,0.163689 -0.23142,0.383822 -0.0847,0.214489 -0.0847,0.462844 z"
         style="font-style:normal;font-variant:normal;font-weight:normal;font-stretch:normal;font-size:5.64444px;font-family:Raleway;-inkscape-font-specification:Raleway;stroke-width:0.264583"
         id="path867" />
      <path
         d="m 107.73992,100.01843 h -0.38382 v -1.642529 q 0,-0.513645 -0.16369,-0.756355 -0.16369,-0.242711 -0.48542,-0.242711 -0.16933,0 -0.32173,0.06209 -0.14676,0.06209 -0.27658,0.174978 -0.12418,0.112889 -0.22013,0.270933 -0.096,0.1524 -0.14676,0.338667 v 1.794929 h -0.38382 v -1.642529 q 0,-0.524933 -0.15804,-0.762 -0.15805,-0.237066 -0.48543,-0.237066 -0.33302,0 -0.59266,0.231422 -0.25965,0.231422 -0.37253,0.609599 v 1.800574 h -0.38383 v -2.940751 h 0.34996 v 0.666044 q 0.18062,-0.338666 0.47413,-0.524933 0.29351,-0.191911 0.64911,-0.191911 0.37254,0 0.59267,0.208845 0.22578,0.208844 0.27658,0.54751 0.41204,-0.756355 1.13453,-0.756355 0.24835,0 0.41769,0.09031 0.17497,0.09031 0.27657,0.259645 0.10725,0.163688 0.1524,0.400755 0.0508,0.231422 0.0508,0.519288 z"
         style="font-style:normal;font-variant:normal;font-weight:normal;font-stretch:normal;font-size:5.64444px;font-family:Raleway;-inkscape-font-specification:Raleway;stroke-width:0.264583"
         id="path869" />
    </g>
  </g>
</svg>
