<?xml version="1.0" encoding="UTF-8" standalone="no"?>
<svg
   xmlns:dc="http://purl.org/dc/elements/1.1/"
   xmlns:cc="http://creativecommons.org/ns#"
   xmlns:rdf="http://www.w3.org/1999/02/22-rdf-syntax-ns#"
   xmlns:svg="http://www.w3.org/2000/svg"
   xmlns="http://www.w3.org/2000/svg"
   xmlns:sodipodi="http://sodipodi.sourceforge.net/DTD/sodipodi-0.dtd"
   xmlns:inkscape="http://www.inkscape.org/namespaces/inkscape"
   width="37.33506mm"
   height="5.0404849mm"
   viewBox="0 0 37.335059 5.040485"
   version="1.1"
   id="svg8"
   inkscape:version="1.0.2 (e86c8708, 2021-01-15)"
   sodipodi:docname="phone.svg">
  <defs
     id="defs2" />
  <sodipodi:namedview
     id="base"
     pagecolor="#ffffff"
     bordercolor="#666666"
     borderopacity="1.0"
     inkscape:pageopacity="0.0"
     inkscape:pageshadow="2"
     inkscape:zoom="4.9120664"
     inkscape:cx="86.542451"
     inkscape:cy="43.503027"
     inkscape:document-units="mm"
     inkscape:current-layer="layer1"
     inkscape:document-rotation="0"
     showgrid="false"
     inkscape:window-width="1252"
     inkscape:window-height="955"
     inkscape:window-x="0"
     inkscape:window-y="23"
     inkscape:window-maximized="0" />
  <metadata
     id="metadata5">
    <rdf:RDF>
      <cc:Work
         rdf:about="">
        <dc:format>image/svg+xml</dc:format>
        <dc:type
           rdf:resource="http://purl.org/dc/dcmitype/StillImage" />
        <dc:title />
      </cc:Work>
    </rdf:RDF>
  </metadata>
  <g
     inkscape:label="Layer 1"
     inkscape:groupmode="layer"
     id="layer1"
     transform="translate(-127.67624,-60.804642)">
    <g
       aria-label="(508) 494-2474"
       id="text846"
       style="font-size:5.64444px;line-height:1.25;font-family:Arial;-inkscape-font-specification:Arial;stroke-width:0.264583">
      <path
         d="m 127.67624,63.022907 q 0,-0.287866 0.0621,-0.564444 0.0621,-0.282222 0.16933,-0.553155 0.10725,-0.276578 0.24836,-0.547511 0.14676,-0.276577 0.31044,-0.553155 l 0.29351,0.141111 q -0.11288,0.169333 -0.24271,0.417689 -0.12417,0.248355 -0.23142,0.530577 -0.10724,0.282222 -0.18062,0.581377 -0.0677,0.293511 -0.0677,0.564445 0,0.440266 0.19191,0.965199 0.19191,0.519288 0.52493,1.027288 l -0.28787,0.1524 q -0.3556,-0.530578 -0.57573,-1.072444 -0.21449,-0.547511 -0.21449,-1.089377 z"
         style="font-style:normal;font-variant:normal;font-weight:normal;font-stretch:normal;font-size:5.64444px;font-family:Raleway;-inkscape-font-specification:Raleway;stroke-width:0.264583"
         id="path848" />
      <path
         d="m 130.51275,63.214818 q 0.27658,0 0.51364,0.09596 0.23707,0.09031 0.41205,0.259644 0.18062,0.169333 0.28222,0.4064 0.1016,0.231422 0.1016,0.513644 0,0.299155 -0.11289,0.541866 -0.10724,0.248355 -0.29915,0.417688 -0.18627,0.174978 -0.44027,0.270934 -0.254,0.09596 -0.54187,0.09596 -0.21449,0 -0.41204,-0.05644 -0.19191,-0.0508 -0.3556,-0.1524 -0.16369,-0.1016 -0.29916,-0.242711 -0.12982,-0.141111 -0.21448,-0.316089 l 0.254,-0.191911 q 0.15804,0.276578 0.42897,0.445911 0.27658,0.169333 0.60396,0.169333 0.20884,0 0.38946,-0.07338 0.18063,-0.06773 0.31609,-0.197555 0.13547,-0.129822 0.20885,-0.310444 0.079,-0.180622 0.079,-0.395111 0,-0.208844 -0.0734,-0.378177 -0.0734,-0.174978 -0.2032,-0.299156 -0.12982,-0.124177 -0.3048,-0.191911 -0.17498,-0.06773 -0.37818,-0.06773 -0.26528,0 -0.50235,0.118533 -0.23142,0.112889 -0.37818,0.333022 h -0.3556 q 0.006,-0.03387 0.0282,-0.1524 0.0226,-0.118533 0.0564,-0.282222 0.0339,-0.163688 0.0734,-0.361244 0.0395,-0.2032 0.079,-0.4064 0.096,-0.474133 0.20884,-1.05551 h 1.93605 v 0.3556 h -1.64818 l -0.27658,1.439332 q 0.14676,-0.158044 0.3556,-0.242711 0.21449,-0.09031 0.46849,-0.09031 z"
         style="font-style:normal;font-variant:normal;font-weight:normal;font-stretch:normal;font-size:5.64444px;font-family:Raleway;-inkscape-font-specification:Raleway;stroke-width:0.264583"
         id="path850" />
      <path
         d="m 135.16897,63.322063 q 0,0.372533 -0.10724,0.688621 -0.10725,0.310444 -0.29916,0.541866 -0.18626,0.225778 -0.44591,0.3556 -0.25964,0.124178 -0.56444,0.124178 -0.3048,0 -0.56445,-0.124178 -0.25964,-0.129822 -0.45155,-0.3556 -0.18627,-0.231422 -0.29351,-0.541866 -0.10725,-0.316088 -0.10725,-0.688621 0,-0.372534 0.10725,-0.682978 0.10724,-0.316088 0.29351,-0.541866 0.19191,-0.231422 0.45155,-0.361244 0.25965,-0.129822 0.56445,-0.129822 0.3048,0 0.56444,0.129822 0.25965,0.129822 0.44591,0.361244 0.19191,0.225778 0.29916,0.541866 0.10724,0.310444 0.10724,0.682978 z m -0.38946,0 q 0,-0.3048 -0.079,-0.553156 -0.0734,-0.248355 -0.20884,-0.423333 -0.13547,-0.180622 -0.32738,-0.276577 -0.18627,-0.1016 -0.41204,-0.1016 -0.23142,0 -0.42334,0.1016 -0.18626,0.09595 -0.32173,0.276577 -0.13547,0.174978 -0.21449,0.423333 -0.0734,0.248356 -0.0734,0.553156 0,0.304799 0.0734,0.553155 0.079,0.248355 0.21449,0.428977 0.13547,0.174978 0.32173,0.270933 0.19192,0.09596 0.42334,0.09596 0.22577,0 0.41204,-0.09596 0.19191,-0.09596 0.32738,-0.270933 0.13547,-0.180622 0.20884,-0.428977 0.079,-0.248356 0.079,-0.553155 z"
         style="font-style:normal;font-variant:normal;font-weight:normal;font-stretch:normal;font-size:5.64444px;font-family:Raleway;-inkscape-font-specification:Raleway;stroke-width:0.264583"
         id="path852" />
      <path
         d="m 138.54056,63.863929 q 0,0.265288 -0.11289,0.479777 -0.11289,0.208844 -0.3048,0.361244 -0.19191,0.1524 -0.45156,0.237067 -0.254,0.07902 -0.53622,0.07902 -0.29916,0 -0.55316,-0.09031 -0.254,-0.09596 -0.44026,-0.254 -0.18062,-0.163689 -0.28222,-0.378177 -0.1016,-0.214489 -0.1016,-0.4572 0,-0.191911 0.0677,-0.3556 0.0734,-0.163688 0.18627,-0.287866 0.11288,-0.129822 0.254,-0.220133 0.14675,-0.09596 0.29351,-0.146756 -0.13547,-0.05644 -0.254,-0.135466 -0.11854,-0.08467 -0.20885,-0.191911 -0.0903,-0.107245 -0.14675,-0.237067 -0.0508,-0.129822 -0.0508,-0.276577 0,-0.248356 0.11289,-0.434622 0.11288,-0.191911 0.28786,-0.321733 0.18062,-0.129822 0.40076,-0.197556 0.22578,-0.06773 0.45155,-0.06773 0.22578,0 0.44591,0.06773 0.22578,0.06773 0.40076,0.197556 0.18062,0.124177 0.29351,0.316088 0.11289,0.191911 0.11289,0.434622 0,0.146756 -0.0565,0.276578 -0.0508,0.129822 -0.14675,0.242711 -0.0903,0.107244 -0.21449,0.191911 -0.11853,0.07902 -0.254,0.135466 0.16369,0.05645 0.31044,0.158045 0.14676,0.09595 0.254,0.225777 0.11289,0.129822 0.17498,0.293511 0.0677,0.163689 0.0677,0.3556 z m -0.38947,-0.02822 q 0,-0.2032 -0.0903,-0.3556 -0.0903,-0.158044 -0.23707,-0.265289 -0.14675,-0.107244 -0.32738,-0.163689 -0.18062,-0.05644 -0.3556,-0.05644 -0.18626,0 -0.36124,0.06209 -0.17498,0.05644 -0.31609,0.169333 -0.14111,0.107244 -0.22578,0.265289 -0.0847,0.158044 -0.0847,0.349955 0,0.197555 0.0903,0.3556 0.0903,0.1524 0.23142,0.259644 0.14676,0.107244 0.32173,0.163689 0.18063,0.05644 0.36125,0.05644 0.18062,0 0.3556,-0.05644 0.18062,-0.06209 0.32173,-0.169333 0.14111,-0.112889 0.22578,-0.265289 0.0903,-0.158044 0.0903,-0.349955 z m -1.86831,-1.828799 q 0,0.163689 0.079,0.293511 0.079,0.124178 0.2032,0.214489 0.12418,0.08467 0.27658,0.129822 0.15804,0.04515 0.3048,0.04515 0.1524,0 0.3048,-0.04515 0.1524,-0.04516 0.27658,-0.135467 0.12982,-0.09031 0.20884,-0.220133 0.079,-0.129822 0.079,-0.293511 0,-0.158044 -0.0734,-0.282222 -0.0734,-0.129822 -0.19755,-0.214489 -0.11853,-0.09031 -0.27658,-0.135466 -0.15804,-0.04516 -0.32738,-0.04516 -0.16368,0 -0.32173,0.0508 -0.1524,0.04516 -0.27093,0.135467 -0.11854,0.08467 -0.19191,0.214489 -0.0734,0.129822 -0.0734,0.287866 z"
         style="font-style:normal;font-variant:normal;font-weight:normal;font-stretch:normal;font-size:5.64444px;font-family:Raleway;-inkscape-font-specification:Raleway;stroke-width:0.264583"
         id="path854" />
      <path
         d="m 140.09136,63.022907 q 0,0.541866 -0.21448,1.089377 -0.21449,0.541866 -0.57574,1.072444 l -0.28222,-0.1524 q 0.16369,-0.254 0.29351,-0.513644 0.13547,-0.259644 0.22578,-0.513644 0.096,-0.259644 0.14676,-0.502355 0.0508,-0.242711 0.0508,-0.462844 0,-0.270934 -0.0734,-0.564445 -0.0677,-0.299155 -0.17498,-0.581377 -0.10724,-0.282222 -0.23707,-0.530577 -0.12417,-0.248356 -0.24271,-0.417689 l 0.29916,-0.141111 q 0.16369,0.276578 0.3048,0.553155 0.14675,0.270933 0.24835,0.547511 0.10725,0.270933 0.16934,0.553155 0.0621,0.276578 0.0621,0.564444 z"
         style="font-style:normal;font-variant:normal;font-weight:normal;font-stretch:normal;font-size:5.64444px;font-family:Raleway;-inkscape-font-specification:Raleway;stroke-width:0.264583"
         id="path856" />
      <path
         d="m 143.79094,65.692727 v -1.00471 h -1.8796 v -0.338666 l 2.00378,-2.596443 h 0.25964 v 2.585154 h 0.49672 v 0.349955 h -0.49672 v 1.00471 z m -1.4732,-1.354665 h 1.51271 v -1.981199 z"
         style="font-style:normal;font-variant:normal;font-weight:normal;font-stretch:normal;font-size:5.64444px;font-family:Raleway;-inkscape-font-specification:Raleway;stroke-width:0.264583"
         id="path858" />
      <path
         d="m 145.07152,63.130152 q 0,-0.287867 0.10725,-0.536222 0.11289,-0.254 0.3048,-0.440267 0.19191,-0.186266 0.45155,-0.29351 0.25965,-0.107245 0.5588,-0.107245 0.31609,0 0.58138,0.118533 0.26529,0.112889 0.45156,0.327378 0.19191,0.214489 0.29915,0.530577 0.10725,0.310445 0.10725,0.699911 0,0.609599 -0.10725,1.066799 -0.10724,0.451555 -0.3048,0.750711 -0.19191,0.304799 -0.46849,0.451555 -0.27093,0.146755 -0.59831,0.146755 -0.39511,0 -0.71684,-0.197555 -0.31609,-0.197556 -0.47978,-0.547511 l 0.24836,-0.225777 q 0.11853,0.287866 0.37253,0.457199 0.25964,0.174978 0.57573,0.174978 0.24836,0 0.45156,-0.118533 0.2032,-0.118534 0.34995,-0.344311 0.14676,-0.220133 0.22578,-0.541866 0.079,-0.327378 0.0847,-0.745067 -0.12983,0.333022 -0.43463,0.530578 -0.29915,0.197555 -0.68297,0.197555 -0.28787,0 -0.54187,-0.1016 -0.24835,-0.107244 -0.43462,-0.287866 -0.18627,-0.186267 -0.29351,-0.434622 -0.10725,-0.248355 -0.10725,-0.530577 z m 1.41676,-1.038577 q -0.21449,0 -0.4064,0.08467 -0.18627,0.07902 -0.33302,0.220133 -0.14111,0.141111 -0.22578,0.333022 -0.0847,0.186267 -0.0847,0.400756 0,0.214488 0.0847,0.406399 0.0847,0.186267 0.22578,0.327378 0.14675,0.141111 0.33302,0.225777 0.19191,0.07902 0.4064,0.07902 0.21449,0 0.4064,-0.07902 0.19191,-0.08467 0.33302,-0.225777 0.14111,-0.141111 0.22013,-0.327378 0.0847,-0.191911 0.0847,-0.406399 0,-0.208845 -0.0847,-0.395111 -0.079,-0.191911 -0.22577,-0.333022 -0.14112,-0.146756 -0.33303,-0.225778 -0.18626,-0.08467 -0.40075,-0.08467 z"
         style="font-style:normal;font-variant:normal;font-weight:normal;font-stretch:normal;font-size:5.64444px;font-family:Raleway;-inkscape-font-specification:Raleway;stroke-width:0.264583"
         id="path860" />
      <path
         d="m 150.18503,65.692727 v -1.00471 h -1.87959 v -0.338666 l 2.00377,-2.596443 h 0.25965 v 2.585154 h 0.49671 v 0.349955 h -0.49671 v 1.00471 z m -1.47319,-1.354665 h 1.51271 v -1.981199 z"
         style="font-style:normal;font-variant:normal;font-weight:normal;font-stretch:normal;font-size:5.64444px;font-family:Raleway;-inkscape-font-specification:Raleway;stroke-width:0.264583"
         id="path862" />
      <path
         d="m 151.57418,63.615573 v -0.355599 h 1.64818 v 0.355599 z"
         style="font-style:normal;font-variant:normal;font-weight:normal;font-stretch:normal;font-size:5.64444px;font-family:Raleway;-inkscape-font-specification:Raleway;stroke-width:0.264583"
         id="path864" />
      <path
         d="m 153.77075,64.975883 q 0,-0.19191 0.0339,-0.383821 0.0339,-0.197556 0.12982,-0.389467 0.1016,-0.191911 0.28222,-0.366888 0.18627,-0.180623 0.49107,-0.338667 0.16369,-0.08467 0.33867,-0.163689 0.18062,-0.08467 0.32737,-0.186266 0.1524,-0.1016 0.24836,-0.225778 0.096,-0.129822 0.096,-0.299155 0,-0.107244 -0.0508,-0.208844 -0.0452,-0.107245 -0.14112,-0.186267 -0.0903,-0.08467 -0.23142,-0.135466 -0.13546,-0.0508 -0.32173,-0.0508 -0.18627,0 -0.33302,0.05644 -0.14676,0.0508 -0.25965,0.124178 -0.10724,0.07338 -0.18626,0.158044 -0.079,0.07902 -0.11854,0.129822 l -0.254,-0.276577 q 0.0339,-0.03387 0.12983,-0.124178 0.0959,-0.09031 0.24835,-0.180622 0.15805,-0.09031 0.36689,-0.158045 0.20884,-0.07338 0.46849,-0.07338 0.25964,0 0.46284,0.07338 0.2032,0.06773 0.34431,0.191911 0.14111,0.124178 0.21449,0.287867 0.0734,0.158044 0.0734,0.333022 0,0.231422 -0.1016,0.400755 -0.1016,0.169333 -0.254,0.293511 -0.14676,0.124178 -0.31609,0.214489 -0.16933,0.08467 -0.3048,0.146755 -0.18062,0.07902 -0.3556,0.180622 -0.16933,0.09596 -0.3048,0.214489 -0.13546,0.118533 -0.22578,0.265289 -0.0847,0.146755 -0.0847,0.327377 h 2.00942 v 0.349955 z"
         style="font-style:normal;font-variant:normal;font-weight:normal;font-stretch:normal;font-size:5.64444px;font-family:Raleway;-inkscape-font-specification:Raleway;stroke-width:0.264583"
         id="path866" />
      <path
         d="m 158.47531,65.692727 v -1.00471 h -1.8796 v -0.338666 l 2.00377,-2.596443 h 0.25965 v 2.585154 h 0.49671 v 0.349955 h -0.49671 v 1.00471 z m -1.4732,-1.354665 h 1.51271 v -1.981199 z"
         style="font-style:normal;font-variant:normal;font-weight:normal;font-stretch:normal;font-size:5.64444px;font-family:Raleway;-inkscape-font-specification:Raleway;stroke-width:0.264583"
         id="path868" />
      <path
         d="m 161.8072,62.040775 h -2.16182 v -0.3556 h 2.77142 l -2.02635,4.007552 h -0.44027 z"
         style="font-style:normal;font-variant:normal;font-weight:normal;font-stretch:normal;font-size:5.64444px;font-family:Raleway;-inkscape-font-specification:Raleway;stroke-width:0.264583"
         id="path870" />
      <path
         d="m 164.13077,65.692727 v -1.00471 h -1.8796 v -0.338666 l 2.00378,-2.596443 h 0.25964 v 2.585154 h 0.49671 v 0.349955 h -0.49671 v 1.00471 z m -1.4732,-1.354665 h 1.51271 v -1.981199 z"
         style="font-style:normal;font-variant:normal;font-weight:normal;font-stretch:normal;font-size:5.64444px;font-family:Raleway;-inkscape-font-specification:Raleway;stroke-width:0.264583"
         id="path872" />
    </g>
  </g>
</svg>
